<svg id="Layer_1" data-name="Layer 1" xmlns="http://www.w3.org/2000/svg" viewBox="0 0 315.34 64.86"><title>mball title</title><path d="M190.65,49.66c0,5.67-2,12.32-4.69,19.16a149.27,149.27,0,0,0-.78,15c0,13.88,2.2,26.39,8.46,26.39,2.49,0,4.2-1.81,5.28-4.55l4.15,1.47c-1.81,4.5-4.89,6.89-9.09,6.89-9.29,0-12.76-10.31-12.76-25.46,0-3,.15-6.21.39-9.58-2,4.35-3.91,8.65-5.57,12.71V93.5a69.88,69.88,0,0,1-.68,9.87l-4.79-.39a29.51,29.51,0,0,1,1.76-9.09c-0.24-5.43-.83-10.56-1.37-15.54-4.2,16.28-12.61,25.51-23.12,25.51-10,0-14.52-6.84-14.52-14,0-7.82,5.38-16,14.81-16,6.11,0,9.38,4.55,9.38,10a15.58,15.58,0,0,1-2.35,8l-4.11-2.25a13.63,13.63,0,0,0,2.1-6.84c0-3.47-1.86-6-5.38-6-6.06,0-10.07,6.89-10.07,13.29,0,5.67,3.13,10.95,10.61,10.95,9.34,0,18.18-11.58,21.9-28.84a132.29,132.29,0,0,1-.93-14.52c0-1.12,0-2.25.1-3.42h4.45a121.64,121.64,0,0,1-.78,12.41c1.08,7.14,2.05,13.15,2.59,19,2.1-4.59,4.55-9.29,6.7-13.83,0.88-7,2.15-14.52,3.76-22.09h4.55Z" transform="translate(-133.32 -49.13)"/><path d="M201.35,70.53h3.47c-1.47,6.5-2.39,11.78-3.08,16.62a6.5,6.5,0,0,0-.1,1.27c0,0.73.15,1.08,0.39,1.08,0.54,0,2.59-2.35,4.94-8.41a2.05,2.05,0,0,1,1.37.68C205.36,89.59,203,93,200.72,93c-1.56,0-2.44-1.42-2.44-4.79V87.69c-1.12,3-2.83,5.57-5.67,5.57-2.39,0-3.37-2.64-3.37-6.21,0-6.89,3.76-17.06,8.41-17.06,1.81,0,2.83,1.07,3.18,3.27Zm-8,16c0,1.51.29,2.54,1,2.54,2.25,0,5-8,5-12.51,0-1.81-.44-3.08-1.52-3.08C195.83,73.51,193.34,82.12,193.34,86.56Z" transform="translate(-133.32 -49.13)"/><path d="M208.49,87.78a2.32,2.32,0,0,0,2.15,1.47c1.22,0,1.91-.88,1.91-2.64,0-3-1.42-6-2.49-9.43-0.54,1.61-1.17,3.13-1.71,4.59,0,0-1.37-.24-1.37-0.64v0c0.64-1.66,1.56-3.86,2.49-6.21a20.54,20.54,0,0,1-.59-4.69,20.89,20.89,0,0,1,1.12-6.5l3.32,0.64a61.05,61.05,0,0,1-1.47,7.14c0.15,4.1,4.94,9.19,4.94,14.66v0.2a32.46,32.46,0,0,0,2.44-5.23,2.05,2.05,0,0,1,1.37.68c-2.25,5.87-5,11.49-10.26,11.49a5,5,0,0,1-4.84-3.32Z" transform="translate(-133.32 -49.13)"/><path d="M234.44,70.48c-1.37,5.82-3,13.25-4.15,19.75,3.27-1.86,4.74-4.4,6.6-9.14a2.05,2.05,0,0,1,1.37.68c-1.81,4.69-3.71,8.06-8,10.26a10,10,0,0,1,3.76,8.11c0,3.91-2,7.43-4.69,7.43-2.25,0-4.2-1-4.2-6.7a78.44,78.44,0,0,1,1.17-10.75c-1.17,1.91-2.64,3.13-4.5,3.13-2.39,0-3.37-2.64-3.37-6.21,0-6.89,3.76-17.06,8.41-17.06,1.66,0,2.54,1.12,2.79,3.27,0.2-1,.44-1.91.64-2.79h4.15ZM222.56,86.56c0,1.51.29,2.54,1,2.54,2.25,0,5-8,5-12.51,0-1.81-.44-3.08-1.52-3.08C225.06,73.51,222.56,82.12,222.56,86.56Zm9.09,13.88a9.68,9.68,0,0,0-2.05-6.3,54.54,54.54,0,0,0-.88,8.06c0,1.86.29,2.93,1,2.93C230.82,105.14,231.65,103,231.65,100.44Z" transform="translate(-133.32 -49.13)"/><path d="M243.29,70.48s-1,4.06-2.2,10.31a38.93,38.93,0,0,0-1,7c0,1.42.54,1.66,1,1.66,0.78,0,2.25-2.88,3.27-7.14l0.29-1.61c0.73-4.15,1.66-7.77,2.25-10.22h4.15c-1.71,7.63-3.13,13.29-3.13,17.3,0,1.42.54,1.66,1,1.66,1.27,0,2.88-2.74,5-8.36a2.12,2.12,0,0,1,1.37.64v0C253.16,87.34,251.45,93,247.44,93c-2.15,0-3.13-1.61-3.42-4-1.08,2.4-2.49,4-4.4,4-2.59,0-3.47-2.35-3.47-5.62a38.14,38.14,0,0,1,.78-6.7c1.22-6.35,2.2-10.22,2.2-10.22h4.15Z" transform="translate(-133.32 -49.13)"/><path d="M267.92,81.09a2.05,2.05,0,0,1,1.37.68c-2.44,6.4-4.89,11.49-9.68,11.49-4.25,0-6-3.91-6-8.5,0-6.65,3.67-14.76,9.14-14.76,2.44,0,3.67,1.76,3.67,4,0,3.47-2.93,8.16-8.7,9.09v0.73c0,2.93.83,5.28,3.08,5.28C263.67,89.1,266.06,86.07,267.92,81.09Zm-10.07.15c3.67-1.81,5.28-5.18,5.28-7a1,1,0,0,0-.78-1.22C260.34,73,258.44,77.18,257.85,81.24Z" transform="translate(-133.32 -49.13)"/><path d="M274.71,89.3c1.08,0,2.79-2.59,4.94-8.21a2.12,2.12,0,0,1,1.37.64v0C278.87,87.34,277.16,93,273.15,93c-2.3,0-3.18-1.47-3.18-3.66,0-3.18,2.25-6.65,2.25-9.14a7.49,7.49,0,0,0-1-3.62l-2,5.18s-1.37-.24-1.37-0.64v0a48.62,48.62,0,0,0,2-7.14,9.66,9.66,0,0,1-.88-4.11,21.18,21.18,0,0,1,1.12-6.06l3.67,1.07A32.66,32.66,0,0,1,272.47,73c1.61,1.66,3.71,3.62,3.71,6.4,0,3.13-2.25,7.18-2.25,8.89C273.93,89,274.22,89.3,274.71,89.3Z" transform="translate(-133.32 -49.13)"/><path d="M291,70.53h3.47c-1.47,6.5-2.39,11.78-3.08,16.62a6.46,6.46,0,0,0-.1,1.27c0,0.73.15,1.08,0.39,1.08,0.54,0,2.59-2.35,4.94-8.41a2.05,2.05,0,0,1,1.37.68C295,89.59,292.6,93,290.35,93c-1.56,0-2.44-1.42-2.44-4.79V87.69c-1.12,3-2.83,5.57-5.67,5.57-2.39,0-3.37-2.64-3.37-6.21,0-6.89,3.76-17.06,8.41-17.06,1.81,0,2.83,1.07,3.18,3.27Zm-8,16c0,1.51.29,2.54,1,2.54,2.25,0,5-8,5-12.51,0-1.81-.44-3.08-1.52-3.08C285.47,73.51,283,82.12,283,86.56Z" transform="translate(-133.32 -49.13)"/><path d="M310.83,54.31h3.86c-0.2,4.15-2,14.17-4.06,22.29a69.53,69.53,0,0,0-1.32,9.92c0,1,.15,1.42.49,1.42,1.12,0,2.59-2.79,4.15-6.84a2.05,2.05,0,0,1,1.37.68c-3,7.82-5.77,11.24-8,11.24-1.56,0-2.44-1.42-2.44-4.79V87.69c-1.12,3-2.83,5.57-5.62,5.57-2.39,0-3.37-2.69-3.37-6.21,0-6.89,3.71-17.06,8.36-17.06,1.81,0,2.83,1.07,3.18,3.27ZM300,86.56c0,1.51.29,2.54,1,2.54,2.25,0,5-8,5-12.51,0-1.81-.44-3.08-1.52-3.08C302.38,73.51,300,82.16,300,86.56Z" transform="translate(-133.32 -49.13)"/><path d="M343.38,67.8c7.62,0,11.14,4.84,11.14,10,0,6-4.69,12.37-13.34,12.37a12.17,12.17,0,0,1-9.68-4.4l2.35-2.35a8.35,8.35,0,0,0,7.38,3.81c6.4,0,9.53-4.74,9.53-9.19,0-4-2.49-7.77-7.38-7.77-12.22,0-11.73,23-23.75,23-4.25,0-6-3.91-6-8.5,0-6.65,3.67-14.76,9.14-14.76,2.44,0,3.67,1.76,3.67,4,0,3.52-3,8.21-8.8,9.14a17.71,17.71,0,0,0-.15,2.2c0,3.08.83,5.52,3,5.52C326.23,90.86,328.72,67.8,343.38,67.8ZM317.87,81.24c3.67-1.81,5.28-5.18,5.28-7a1,1,0,0,0-.78-1.22C320.46,73,318.65,77,317.87,81.24Z" transform="translate(-133.32 -49.13)"/><path d="M379.45,81.68a8.74,8.74,0,0,1-3,.49c-8,0-12.32-6.45-12.32-13.64,0-9.09,6.84-19.4,21.7-19.4,9.19,0,17.4,4.45,17.4,13.39a12.51,12.51,0,0,1-6.7,11.29,14.72,14.72,0,0,1,9.19,13.93c0,8.11-6,16.37-17.3,16.37a28.41,28.41,0,0,1-11.39-2,13.46,13.46,0,0,1-7.53,2.25L370.31,98a7.89,7.89,0,0,1,1.91-.2A10.67,10.67,0,0,1,377,99c3.47-3.42,5.47-11.78,7.14-23.66,1.27-9.14,2.35-15.3,3.67-19.21l4.55,1.12A71.74,71.74,0,0,0,389,72.34a27.11,27.11,0,0,1,4.2.44C397,70.92,398.76,67,398.76,63c0-7.62-6.55-11.44-13.24-11.44-11.88,0-17.4,8.7-17.4,16.08,0,5.38,3,10.07,8.5,10.07a9.1,9.1,0,0,0,2.05-.24ZM401,87.49c0-5.18-2.4-10.36-7.38-12.51a19.07,19.07,0,0,1-4.94.73c-1.66,13-5.13,20.43-9.19,24.44a24.65,24.65,0,0,0,8.94,1.51C396.61,101.67,401,94.53,401,87.49Z" transform="translate(-133.32 -49.13)"/><path d="M419.24,70.53h3.47c-1.47,6.5-2.4,11.78-3.08,16.62a6.5,6.5,0,0,0-.1,1.27c0,0.73.15,1.08,0.39,1.08,0.54,0,2.59-2.35,4.94-8.41a2,2,0,0,1,1.37.68c-3,7.82-5.38,11.24-7.62,11.24-1.56,0-2.44-1.42-2.44-4.79V87.69c-1.12,3-2.83,5.57-5.67,5.57-2.4,0-3.37-2.64-3.37-6.21,0-6.89,3.76-17.06,8.41-17.06,1.81,0,2.84,1.07,3.18,3.27Zm-8,16c0,1.51.29,2.54,1,2.54,2.25,0,5-8,5-12.51,0-1.81-.44-3.08-1.51-3.08C413.72,73.51,411.22,82.12,411.22,86.56Z" transform="translate(-133.32 -49.13)"/><path d="M435.91,81.09a1.85,1.85,0,0,1,1.17.64v0c-2.88,7.82-5.13,11.49-8.31,11.49-2.93,0-4.1-2.88-4.1-8a85.65,85.65,0,0,1,1.56-13.83c2.2-12.27,5.28-17.79,8.11-17.79,2.54,0,3.27,2.05,3.27,4.55a28.93,28.93,0,0,1-1.47,7.87,42,42,0,0,1-7.23,13.59,50.28,50.28,0,0,0-.39,5.57c0,3.27.73,4.3,1.86,4.3C431.95,89.54,433.8,86.51,435.91,81.09ZM435,56.95c-1.32,0-4.2,10.56-5.62,19.65C431.8,72.15,435.42,64,435.46,58,435.46,57.34,435.22,56.95,435,56.95Z" transform="translate(-133.32 -49.13)"/><path d="M447,81.09a1.85,1.85,0,0,1,1.17.64v0c-2.88,7.82-5.13,11.49-8.31,11.49-2.93,0-4.1-2.88-4.1-8a85.65,85.65,0,0,1,1.56-13.83c2.2-12.27,5.28-17.79,8.11-17.79,2.54,0,3.27,2.05,3.27,4.55a28.93,28.93,0,0,1-1.47,7.87A42,42,0,0,1,440,79.67a50.28,50.28,0,0,0-.39,5.57c0,3.27.73,4.3,1.86,4.3C443,89.54,444.85,86.51,447,81.09ZM446,56.95c-1.32,0-4.2,10.56-5.62,19.65,2.44-4.45,6.06-12.61,6.11-18.57C446.51,57.34,446.27,56.95,446,56.95Z" transform="translate(-133.32 -49.13)"/></svg>